<svg xmlns="http://www.w3.org/2000/svg" xmlns:xlink="http://www.w3.org/1999/xlink" width="1080" zoomAndPan="magnify" viewBox="0 0 810 693.000001" height="924" preserveAspectRatio="xMidYMid meet" version="1.0"><defs><g/></defs><path fill="#d25226" d="M 154.234375 374.308594 C 157.050781 374.355469 159.769531 373.273438 161.792969 371.3125 C 163.8125 369.347656 164.96875 366.660156 165.003906 363.84375 C 165.039062 361.027344 163.949219 358.308594 161.980469 356.296875 C 160.007812 354.28125 157.316406 353.136719 154.5 353.113281 L 149.199219 353.113281 L 149.199219 350.464844 C 149.199219 347.652344 148.082031 344.960938 146.09375 342.972656 C 144.105469 340.988281 141.414062 339.867188 138.601562 339.867188 L 117.09375 339.867188 C 141.75 323.925781 130.359375 288.792969 101.125 286.988281 C 100.953125 285.390625 101.058594 283.777344 101.433594 282.21875 C 102.457031 278.472656 104.878906 275.257812 108.199219 273.242188 C 109.421875 272.464844 109.792969 270.847656 109.035156 269.617188 C 108.273438 268.382812 106.664062 267.988281 105.421875 268.730469 C 102.050781 270.839844 99.339844 273.851562 97.59375 277.421875 C 94.085938 264.8125 80.367188 274.488281 77.273438 276.820312 C 78.84375 279.15625 88.683594 292.785156 95.84375 283.800781 C 95.75 284.875 95.746094 285.949219 95.828125 287.023438 C 67.03125 289.429688 56.289062 324.171875 80.632812 339.867188 L 59.125 339.867188 C 56.3125 339.871094 53.621094 340.988281 51.632812 342.976562 C 49.648438 344.964844 48.527344 347.65625 48.527344 350.464844 L 48.527344 353.117188 L 43.226562 353.117188 C 40.410156 353.140625 37.71875 354.285156 35.746094 356.300781 C 33.777344 358.3125 32.6875 361.027344 32.722656 363.84375 C 32.757812 366.664062 33.914062 369.351562 35.933594 371.3125 C 37.957031 373.277344 40.675781 374.355469 43.492188 374.308594 L 47.042969 408.035156 C 47.511719 412.597656 49.660156 416.824219 53.066406 419.890625 C 56.472656 422.960938 60.898438 424.65625 65.480469 424.648438 L 132.246094 424.648438 C 136.832031 424.65625 141.253906 422.960938 144.660156 419.890625 C 148.066406 416.824219 150.214844 412.597656 150.683594 408.035156 Z M 120.054688 318.671875 C 120.035156 320.121094 118.855469 321.28125 117.40625 321.28125 C 115.960938 321.28125 114.777344 320.121094 114.757812 318.671875 C 114.777344 317.226562 115.960938 316.0625 117.40625 316.0625 C 118.855469 316.0625 120.035156 317.226562 120.054688 318.671875 Z M 104.347656 300.65625 C 104.917969 299.308594 106.457031 298.664062 107.816406 299.199219 C 112.714844 301.125 116.65625 304.902344 118.785156 309.71875 C 119.3125 311.058594 118.667969 312.570312 117.335938 313.121094 C 116.007812 313.671875 114.480469 313.050781 113.910156 311.730469 C 112.308594 308.226562 109.398438 305.488281 105.804688 304.101562 C 104.457031 303.546875 103.804688 302.011719 104.347656 300.65625 Z M 53.824219 350.464844 C 53.828125 349.058594 54.386719 347.714844 55.378906 346.71875 C 56.371094 345.726562 57.71875 345.167969 59.125 345.164062 L 138.601562 345.164062 C 140.007812 345.167969 141.351562 345.726562 142.347656 346.71875 C 143.339844 347.714844 143.898438 349.058594 143.902344 350.464844 L 143.902344 353.113281 L 53.824219 353.113281 Z M 37.929688 363.710938 C 37.933594 362.304688 38.492188 360.960938 39.484375 359.96875 C 40.476562 358.976562 41.824219 358.414062 43.226562 358.410156 L 154.5 358.410156 C 156.390625 358.410156 158.140625 359.421875 159.085938 361.0625 C 160.03125 362.699219 160.03125 364.71875 159.085938 366.359375 C 158.140625 368 156.390625 369.007812 154.5 369.007812 L 122.707031 369.007812 L 122.707031 374.308594 C 122.703125 375.710938 122.140625 377.058594 121.148438 378.050781 C 120.15625 379.042969 118.8125 379.601562 117.40625 379.605469 L 80.316406 379.605469 C 78.914062 379.601562 77.566406 379.042969 76.574219 378.050781 C 75.582031 377.058594 75.023438 375.710938 75.019531 374.308594 L 75.019531 369.007812 L 43.226562 369.007812 C 41.824219 369.003906 40.476562 368.445312 39.484375 367.453125 C 38.492188 366.460938 37.933594 365.113281 37.929688 363.710938 Z M 128.003906 414.046875 L 122.707031 414.046875 C 121.257812 414.027344 120.097656 412.84375 120.097656 411.398438 C 120.097656 409.949219 121.257812 408.769531 122.707031 408.75 L 128.003906 408.75 C 129.453125 408.769531 130.617188 409.949219 130.617188 411.398438 C 130.617188 412.84375 129.453125 414.027344 128.003906 414.046875 Z M 52.5 408.75 L 114.753906 408.75 C 116.21875 408.75 117.40625 409.933594 117.40625 411.398438 C 117.40625 412.859375 116.21875 414.046875 114.753906 414.046875 L 54.882812 414.046875 C 53.6875 412.488281 52.871094 410.675781 52.496094 408.75 Z M 52.5 408.75 " fill-opacity="1" fill-rule="nonzero"/><path fill="#d25226" d="M 189.097656 333.003906 C 188.992188 332.683594 188.886719 332.339844 188.753906 332.023438 L 178.460938 305.265625 L 180.53125 296.988281 C 181.457031 296.570312 182.242188 295.890625 182.792969 295.039062 C 183.34375 294.1875 183.640625 293.195312 183.640625 292.175781 L 183.640625 286.878906 C 183.640625 285.472656 183.082031 284.128906 182.085938 283.132812 C 181.09375 282.140625 179.75 281.582031 178.34375 281.582031 L 151.851562 281.582031 C 150.445312 281.582031 149.097656 282.140625 148.105469 283.132812 C 147.113281 284.128906 146.554688 285.472656 146.550781 286.878906 L 146.550781 292.175781 C 146.554688 293.195312 146.847656 294.1875 147.398438 295.039062 C 147.949219 295.890625 148.734375 296.570312 149.660156 296.988281 L 151.730469 305.265625 C 151.257812 306.585938 140.507812 334.195312 140.511719 334.699219 C 142.28125 334.890625 144.003906 335.390625 145.597656 336.183594 C 145.023438 337.1875 156.242188 308.371094 156.328125 308.074219 L 173.867188 308.074219 C 175.609375 313.191406 185.171875 335.769531 185.734375 340.738281 C 180.738281 343.308594 174.957031 343.894531 169.546875 342.382812 C 166.390625 341.246094 163.871094 339.445312 160.089844 339.839844 C 156.832031 340.230469 155.734375 341.949219 152.328125 342.460938 C 153.296875 344.109375 153.953125 345.925781 154.261719 347.8125 C 172.71875 347.859375 176.449219 373.472656 159.082031 378.941406 L 155.957031 408.589844 C 155.34375 414.578125 152.472656 420.109375 147.929688 424.058594 C 149.617188 425.132812 175.832031 424.480469 178.34375 424.644531 C 181.855469 424.640625 185.226562 423.246094 187.707031 420.761719 C 190.191406 418.277344 191.589844 414.910156 191.589844 411.398438 L 191.589844 347.257812 C 191.597656 342.394531 190.753906 337.570312 189.097656 333.003906 Z M 156.566406 302.773438 L 155.242188 297.476562 L 174.949219 297.476562 L 173.625 302.773438 Z M 178.34375 414.046875 C 176.894531 414.023438 175.730469 412.84375 175.730469 411.394531 C 175.730469 409.949219 176.894531 408.769531 178.34375 408.746094 C 179.789062 408.769531 180.953125 409.949219 180.953125 411.394531 C 180.953125 412.84375 179.789062 414.023438 178.34375 414.046875 Z M 180.992188 403.449219 C 180.96875 404.894531 179.789062 406.058594 178.34375 406.058594 C 176.894531 406.058594 175.714844 404.894531 175.691406 403.449219 L 175.691406 382.253906 C 175.691406 380.789062 176.878906 379.605469 178.34375 379.605469 C 179.804688 379.605469 180.992188 380.789062 180.992188 382.253906 Z M 180.992188 403.449219 " fill-opacity="1" fill-rule="nonzero"/><g fill="#d25226" fill-opacity="1"><g transform="translate(220.801078, 411.531163)"><g><path d="M 67.625 -113.359375 C 68.28125 -114.566406 69.265625 -115.171875 70.578125 -115.171875 L 95.59375 -115.171875 C 96.25 -115.171875 96.769531 -114.953125 97.15625 -114.515625 C 97.539062 -114.078125 97.675781 -113.472656 97.5625 -112.703125 L 84.078125 -2.46875 C 83.960938 -1.695312 83.660156 -1.09375 83.171875 -0.65625 C 82.679688 -0.21875 82.101562 0 81.4375 0 L 56.109375 0 C 55.453125 0 54.929688 -0.21875 54.546875 -0.65625 C 54.160156 -1.09375 54.019531 -1.695312 54.125 -2.46875 L 62.359375 -69.765625 C 62.460938 -70.203125 62.378906 -70.445312 62.109375 -70.5 C 61.835938 -70.550781 61.59375 -70.414062 61.375 -70.09375 L 50.1875 -53.96875 L 48.203125 -51 L 48.046875 -51 L 39.65625 -70.09375 C 39.539062 -70.414062 39.375 -70.550781 39.15625 -70.5 C 38.9375 -70.445312 38.773438 -70.203125 38.671875 -69.765625 L 30.4375 -2.46875 C 30.332031 -1.695312 30.054688 -1.09375 29.609375 -0.65625 C 29.171875 -0.21875 28.570312 0 27.8125 0 L 2.625 0 C 1.863281 0 1.289062 -0.21875 0.90625 -0.65625 C 0.519531 -1.09375 0.382812 -1.695312 0.5 -2.46875 L 13.984375 -112.703125 C 14.097656 -113.472656 14.398438 -114.078125 14.890625 -114.515625 C 15.378906 -114.953125 15.957031 -115.171875 16.625 -115.171875 L 41.625 -115.171875 C 42.9375 -115.171875 43.816406 -114.566406 44.265625 -113.359375 L 52.984375 -91.96875 C 53.203125 -91.53125 53.53125 -91.53125 53.96875 -91.96875 Z M 67.625 -113.359375 "/></g></g></g><g fill="#d25226" fill-opacity="1"><g transform="translate(311.127045, 411.531163)"><g><path d="M 35.203125 1.3125 C 25.441406 1.3125 17.765625 -1.34375 12.171875 -6.65625 C 6.578125 -11.976562 3.78125 -19.191406 3.78125 -28.296875 C 3.78125 -29.390625 3.890625 -31.253906 4.109375 -33.890625 L 10.03125 -81.28125 C 11.351562 -92.03125 15.601562 -100.582031 22.78125 -106.9375 C 29.96875 -113.300781 38.9375 -116.484375 49.6875 -116.484375 C 59.34375 -116.484375 66.992188 -113.820312 72.640625 -108.5 C 78.285156 -103.1875 81.109375 -95.976562 81.109375 -86.875 C 81.109375 -85.78125 81 -83.914062 80.78125 -81.28125 L 75.03125 -33.890625 C 73.707031 -23.140625 69.425781 -14.582031 62.1875 -8.21875 C 54.945312 -1.863281 45.953125 1.3125 35.203125 1.3125 Z M 38.5 -25.171875 C 40.144531 -25.171875 41.539062 -25.828125 42.6875 -27.140625 C 43.84375 -28.460938 44.585938 -30.273438 44.921875 -32.578125 L 51 -82.59375 C 51.21875 -84.894531 50.941406 -86.703125 50.171875 -88.015625 C 49.410156 -89.335938 48.207031 -90 46.5625 -90 C 44.8125 -90 43.359375 -89.335938 42.203125 -88.015625 C 41.046875 -86.703125 40.359375 -84.894531 40.140625 -82.59375 L 34.0625 -32.578125 C 33.945312 -32.140625 33.890625 -31.535156 33.890625 -30.765625 C 33.890625 -29.015625 34.300781 -27.644531 35.125 -26.65625 C 35.945312 -25.664062 37.070312 -25.171875 38.5 -25.171875 Z M 38.5 -25.171875 "/></g></g></g><g fill="#d25226" fill-opacity="1"><g transform="translate(388.290757, 411.531163)"><g><path d="M 75.515625 -33.078125 C 74.304688 -22.429688 70.109375 -14.253906 62.921875 -8.546875 C 55.742188 -2.847656 47.109375 0 37.015625 0 L 3.296875 0 C 2.628906 0 2.101562 -0.21875 1.71875 -0.65625 C 1.34375 -1.09375 1.207031 -1.695312 1.3125 -2.46875 L 14.8125 -112.703125 C 14.914062 -113.472656 15.210938 -114.078125 15.703125 -114.515625 C 16.203125 -114.953125 16.78125 -115.171875 17.4375 -115.171875 L 46.390625 -115.171875 C 56.921875 -115.171875 65.117188 -112.945312 70.984375 -108.5 C 76.859375 -104.0625 79.796875 -97.347656 79.796875 -88.359375 C 79.796875 -87.253906 79.6875 -85.390625 79.46875 -82.765625 C 78.15625 -72.554688 74.148438 -64.984375 67.453125 -60.046875 C 66.796875 -59.722656 66.632812 -59.394531 66.96875 -59.0625 C 72.882812 -54.019531 75.84375 -46.945312 75.84375 -37.84375 C 75.84375 -36.851562 75.734375 -35.265625 75.515625 -33.078125 Z M 42.609375 -88.6875 C 42.066406 -88.6875 41.796875 -88.410156 41.796875 -87.859375 L 39.65625 -71.078125 C 39.65625 -70.523438 39.875 -70.25 40.3125 -70.25 L 41.296875 -70.25 C 46.015625 -70.25 48.8125 -73.320312 49.6875 -79.46875 L 49.859375 -81.609375 C 49.859375 -86.328125 47.769531 -88.6875 43.59375 -88.6875 Z M 37.84375 -26.484375 C 40.257812 -26.484375 42.257812 -27.632812 43.84375 -29.9375 C 45.4375 -32.25 46.234375 -35.539062 46.234375 -39.8125 C 46.234375 -42.332031 45.738281 -44.359375 44.75 -45.890625 C 43.757812 -47.429688 42.390625 -48.203125 40.640625 -48.203125 L 37.671875 -48.203125 C 37.128906 -48.203125 36.859375 -47.929688 36.859375 -47.390625 L 34.390625 -27.3125 C 34.171875 -26.757812 34.390625 -26.484375 35.046875 -26.484375 Z M 37.84375 -26.484375 "/></g></g></g><g fill="#d25226" fill-opacity="1"><g transform="translate(465.454457, 411.531163)"><g><path d="M 76.015625 -91.15625 C 75.898438 -90.382812 75.597656 -89.78125 75.109375 -89.34375 C 74.617188 -88.90625 73.988281 -88.6875 73.21875 -88.6875 L 42.609375 -88.6875 C 42.066406 -88.6875 41.796875 -88.410156 41.796875 -87.859375 L 39.8125 -71.734375 C 39.59375 -71.179688 39.8125 -70.90625 40.46875 -70.90625 L 56.4375 -70.90625 C 57.195312 -70.90625 57.769531 -70.6875 58.15625 -70.25 C 58.539062 -69.8125 58.679688 -69.207031 58.578125 -68.4375 L 55.9375 -46.890625 C 55.613281 -45.242188 54.679688 -44.421875 53.140625 -44.421875 L 37.1875 -44.421875 C 36.632812 -44.421875 36.359375 -44.144531 36.359375 -43.59375 L 34.390625 -27.3125 C 34.171875 -26.757812 34.390625 -26.484375 35.046875 -26.484375 L 65.640625 -26.484375 C 66.410156 -26.484375 66.988281 -26.265625 67.375 -25.828125 C 67.757812 -25.390625 67.894531 -24.785156 67.78125 -24.015625 L 65.15625 -2.46875 C 65.039062 -1.695312 64.738281 -1.09375 64.25 -0.65625 C 63.757812 -0.21875 63.128906 0 62.359375 0 L 3.296875 0 C 2.628906 0 2.101562 -0.21875 1.71875 -0.65625 C 1.34375 -1.09375 1.207031 -1.695312 1.3125 -2.46875 L 14.8125 -112.703125 C 14.914062 -113.472656 15.210938 -114.078125 15.703125 -114.515625 C 16.203125 -114.953125 16.78125 -115.171875 17.4375 -115.171875 L 76.5 -115.171875 C 77.269531 -115.171875 77.847656 -114.953125 78.234375 -114.515625 C 78.617188 -114.078125 78.753906 -113.472656 78.640625 -112.703125 Z M 76.015625 -91.15625 "/></g></g></g><g fill="#d25226" fill-opacity="1"><g transform="translate(536.366106, 411.531163)"><g><path d="M 3.296875 0 C 2.628906 0 2.101562 -0.21875 1.71875 -0.65625 C 1.34375 -1.09375 1.207031 -1.695312 1.3125 -2.46875 L 14.8125 -112.703125 C 14.914062 -113.472656 15.210938 -114.078125 15.703125 -114.515625 C 16.203125 -114.953125 16.78125 -115.171875 17.4375 -115.171875 L 42.78125 -115.171875 C 43.4375 -115.171875 43.957031 -114.953125 44.34375 -114.515625 C 44.726562 -114.078125 44.863281 -113.472656 44.75 -112.703125 L 40.796875 -79.640625 C 40.691406 -79.191406 40.75 -78.96875 40.96875 -78.96875 C 41.1875 -78.96875 41.40625 -79.132812 41.625 -79.46875 L 59.390625 -113.203125 C 60.054688 -114.515625 61.097656 -115.171875 62.515625 -115.171875 L 88.84375 -115.171875 C 90.164062 -115.171875 90.828125 -114.675781 90.828125 -113.6875 C 90.828125 -113.25 90.660156 -112.753906 90.328125 -112.203125 L 61.859375 -63.515625 C 61.753906 -63.066406 61.703125 -62.734375 61.703125 -62.515625 L 77.65625 -2.796875 L 77.65625 -2.140625 C 77.65625 -0.710938 76.890625 0 75.359375 0 L 48.859375 0 C 47.441406 0 46.566406 -0.65625 46.234375 -1.96875 L 37.84375 -35.875 C 37.84375 -36.195312 37.734375 -36.382812 37.515625 -36.4375 C 37.296875 -36.5 37.128906 -36.3125 37.015625 -35.875 L 35.046875 -32.25 L 34.875 -31.265625 L 31.265625 -2.46875 C 31.148438 -1.695312 30.84375 -1.09375 30.34375 -0.65625 C 29.851562 -0.21875 29.28125 0 28.625 0 Z M 3.296875 0 "/></g></g></g><g fill="#d25226" fill-opacity="1"><g transform="translate(618.79472, 411.531163)"><g><path d="M 51.171875 0 C 49.628906 0 48.914062 -0.765625 49.03125 -2.296875 L 48.703125 -14.8125 C 48.804688 -15.03125 48.75 -15.21875 48.53125 -15.375 C 48.3125 -15.539062 48.09375 -15.625 47.875 -15.625 L 33.5625 -15.625 C 33.007812 -15.625 32.625 -15.351562 32.40625 -14.8125 L 29.28125 -2.296875 C 28.957031 -0.765625 28.023438 0 26.484375 0 L 1.484375 0 C -0.160156 0 -0.765625 -0.875 -0.328125 -2.625 L 35.875 -113.03125 C 36.3125 -114.457031 37.296875 -115.171875 38.828125 -115.171875 L 67.953125 -115.171875 C 69.484375 -115.171875 70.304688 -114.457031 70.421875 -113.03125 L 79.46875 -2.625 L 79.46875 -2.296875 C 79.46875 -0.765625 78.644531 0 77 0 Z M 39.15625 -40.140625 C 38.9375 -39.597656 39.101562 -39.328125 39.65625 -39.328125 L 47.390625 -39.328125 C 47.710938 -39.328125 47.984375 -39.597656 48.203125 -40.140625 L 47.546875 -70.578125 C 47.546875 -71.015625 47.410156 -71.207031 47.140625 -71.15625 C 46.867188 -71.101562 46.734375 -70.910156 46.734375 -70.578125 Z M 39.15625 -40.140625 "/></g></g></g><g fill="#d25226" fill-opacity="1"><g transform="translate(703.526727, 411.531163)"><g><path d="M 3.296875 0 C 2.628906 0 2.101562 -0.21875 1.71875 -0.65625 C 1.34375 -1.09375 1.207031 -1.695312 1.3125 -2.46875 L 14.8125 -112.703125 C 14.914062 -113.472656 15.210938 -114.078125 15.703125 -114.515625 C 16.203125 -114.953125 16.78125 -115.171875 17.4375 -115.171875 L 42.78125 -115.171875 C 43.4375 -115.171875 43.957031 -114.953125 44.34375 -114.515625 C 44.726562 -114.078125 44.863281 -113.472656 44.75 -112.703125 L 34.390625 -27.3125 C 34.171875 -26.757812 34.390625 -26.484375 35.046875 -26.484375 L 66.3125 -26.484375 C 67.070312 -26.484375 67.644531 -26.265625 68.03125 -25.828125 C 68.414062 -25.390625 68.550781 -24.785156 68.4375 -24.015625 L 65.8125 -2.46875 C 65.476562 -0.820312 64.546875 0 63.015625 0 Z M 3.296875 0 "/></g></g></g></svg>