<?xml version="1.0" standalone="no"?>
<!DOCTYPE svg PUBLIC "-//W3C//DTD SVG 20010904//EN"
 "http://www.w3.org/TR/2001/REC-SVG-20010904/DTD/svg10.dtd">
<svg version="1.0" xmlns="http://www.w3.org/2000/svg"
 width="273.000000pt" height="95.000000pt" viewBox="0 0 273.000000 95.000000"
 preserveAspectRatio="xMidYMid meet">

<g transform="translate(0.000000,95.000000) scale(0.100000,-0.100000)"
fill="#555555" stroke="none">
<path d="M47 894 c-15 -16 -5 -53 42 -151 68 -141 127 -228 218 -324 220 -231
474 -344 851 -379 271 -25 634 48 937 188 186 85 415 235 423 275 7 38 -29 28
-110 -30 -221 -158 -489 -279 -743 -335 -718 -158 -1297 93 -1544 668 -36 82
-56 106 -74 88z"/>
<path d="M2187 663 c-4 -3 -7 -14 -7 -23 0 -40 120 -62 308 -58 100 2 142 0
142 -8 0 -6 -23 -47 -52 -90 -103 -158 -143 -285 -92 -292 18 -3 23 4 28 35
10 53 46 130 96 203 23 34 55 91 72 127 42 88 36 93 -97 81 -119 -11 -282 -3
-339 17 -47 17 -50 17 -59 8z"/>
</g>
</svg>
